<svg width="24" height="24" viewBox="0 0 24 24" fill="none" xmlns="http://www.w3.org/2000/svg">
<path d="M12 22.6668C17.891 22.6668 22.6667 17.8912 22.6667 12.0002C22.6667 6.10913 17.891 1.3335 12 1.3335C6.10896 1.3335 1.33333 6.10913 1.33333 12.0002C1.33333 17.8912 6.10896 22.6668 12 22.6668Z" fill="url(#paint0_linear_327_540)"/>
<path d="M12 21.3332C17.1547 21.3332 21.3333 17.1545 21.3333 11.9998C21.3333 6.84518 17.1547 2.6665 12 2.6665C6.84534 2.6665 2.66667 6.84518 2.66667 11.9998C2.66667 17.1545 6.84534 21.3332 12 21.3332Z" fill="url(#paint1_linear_327_540)"/>
<path d="M18.4 12.0103C18.3879 12.02 18.3749 12.0288 18.364 12.0397C17.9128 12.4906 17.4617 12.9417 17.0107 13.3927C16.9957 13.4076 16.9804 13.4221 16.9692 13.4329C16.4899 12.9536 16.013 12.4767 15.5411 12.0048C16.012 11.534 16.4887 11.0572 16.9698 10.5762C16.9749 10.5806 16.9884 10.5912 17.0005 10.6032C17.4627 11.0656 17.9249 11.5282 18.3871 11.9907C18.3907 11.9944 18.3957 11.9967 18.4 11.9996V12.0103Z" fill="white"/>
<path d="M9.52753 10.9685C9.04713 10.4881 8.57093 10.012 8.0938 9.53494C8.10993 9.50607 11.946 5.66394 12.0029 5.62061C13.3089 6.92654 14.6145 8.23201 15.9212 9.53861C15.9051 9.56747 14.562 10.9168 14.4915 10.9713C13.6659 10.1457 12.8395 9.31934 12.0081 8.48794C11.1777 9.31847 10.3514 10.1447 9.52753 10.9685Z" fill="white"/>
<path d="M9.52233 13.0317C10.3514 13.8608 11.1767 14.6861 12.0058 15.5151C12.1043 15.4255 12.1927 15.3313 12.2844 15.2405C12.3767 15.1493 12.468 15.0571 12.5597 14.9654C12.6515 14.8737 12.7432 14.7819 12.835 14.6901C12.9267 14.5984 13.0185 14.5067 13.1103 14.4149C13.2033 14.3219 13.2963 14.2289 13.3893 14.1359C13.481 14.0441 13.5727 13.9524 13.6645 13.8606C13.7563 13.7688 13.848 13.6771 13.9398 13.5853C14.0315 13.4936 14.1233 13.4019 14.2151 13.3101C14.3067 13.2185 14.3983 13.1269 14.4949 13.0303C14.9754 13.5101 15.4527 13.9868 15.9255 14.459C14.6165 15.7679 13.3101 17.0742 12.0089 18.3754C10.7081 17.0746 9.40173 15.7683 8.09167 14.4581C8.5632 13.9881 9.04087 13.5118 9.52233 13.0317Z" fill="white"/>
<path d="M12.0087 13.4476C11.5277 12.9666 11.0432 12.4822 10.5626 12.0015C11.0429 11.5212 11.5274 11.0367 12.0075 10.5566C12.4886 11.0378 12.9731 11.5223 13.4536 12.0028C12.973 12.4834 12.4885 12.9679 12.0087 13.4476Z" fill="white"/>
<path d="M5.63053 11.9988C6.104 11.5253 6.58 11.0493 7.0522 10.5771C7.52647 11.0514 8.0034 11.5283 8.4754 12.0003C8.00347 12.4724 7.52647 12.9495 7.05387 13.4221C6.584 12.9523 6.10693 12.4753 5.63053 11.9988Z" fill="white"/>
<defs>
<linearGradient id="paint0_linear_327_540" x1="8.17391" y1="1.3335" x2="25.094" y2="4.58054" gradientUnits="userSpaceOnUse">
<stop stop-color="#424C6E"/>
<stop offset="1" stop-color="#53B9EA"/>
</linearGradient>
<linearGradient id="paint1_linear_327_540" x1="8.65217" y1="2.66651" x2="23.4573" y2="5.50766" gradientUnits="userSpaceOnUse">
<stop stop-color="#424C6E"/>
<stop offset="1" stop-color="#53B9EA"/>
</linearGradient>
</defs>
</svg>
