<svg width="24" height="24" viewBox="0 0 24 24" fill="none" xmlns="http://www.w3.org/2000/svg">
<g clip-path="url(#clip0_325_528)">
<path d="M12 23.1998C18.1856 23.1998 23.2 18.1854 23.2 11.9998C23.2 5.81422 18.1856 0.799805 12 0.799805C5.8144 0.799805 0.799988 5.81422 0.799988 11.9998C0.799988 18.1854 5.8144 23.1998 12 23.1998Z" fill="url(#paint0_linear_325_528)"/>
<path d="M12 21.5999C17.302 21.5999 21.6 17.3018 21.6 11.9999C21.6 6.69797 17.302 2.3999 12 2.3999C6.69809 2.3999 2.40002 6.69797 2.40002 11.9999C2.40002 17.3018 6.69809 21.5999 12 21.5999Z" fill="url(#paint1_linear_325_528)"/>
<path d="M16.8812 10.8926C17.0252 9.61503 16.1219 8.79763 14.7384 8.27343L15.2485 6.46636L14.1495 6.1565L13.6352 7.9551C13.347 7.8721 13.0572 7.77603 12.7592 7.69943L13.2683 5.9099L12.1693 5.6001L11.6592 7.40716C11.4189 7.34596 9.43902 6.7837 9.43902 6.7837L9.10542 7.9599C9.10542 7.9599 9.92189 8.17183 9.90589 8.1837C10.3546 8.3087 10.4245 8.61023 10.4037 8.8437L9.00875 13.7981C8.94982 13.9305 8.80315 14.1301 8.49389 14.0469C8.50449 14.0652 7.69475 13.8208 7.69475 13.8208L7.10382 15.0744C7.10382 15.0744 9.06515 15.632 9.32222 15.706L8.80602 17.5338L9.90502 17.8437L10.4278 16.0046C10.726 16.0964 11.0188 16.1821 11.306 16.2616L10.7862 18.0903L11.8852 18.4001L12.4001 16.5746C14.0799 17.0742 15.6596 16.7516 16.2738 15.2082C16.6366 14.2734 16.1106 13.027 15.3803 12.4954C16.1046 12.3504 16.7069 11.8735 16.8812 10.8926ZM14.2388 14.3712C13.6099 15.8877 11.5562 14.9214 10.8121 14.7153L11.476 12.2853C12.2224 12.4928 14.6389 12.9457 14.2388 14.3712ZM14.7302 10.8218C14.2036 12.1888 12.4486 11.3602 11.8294 11.1844L12.4297 8.9781C13.0486 9.1597 14.9945 9.42636 14.7302 10.8218Z" fill="white"/>
</g>
<defs>
<linearGradient id="paint0_linear_325_528" x1="7.9826" y1="0.799806" x2="25.7487" y2="4.2092" gradientUnits="userSpaceOnUse">
<stop stop-color="#424C6E"/>
<stop offset="1" stop-color="#53B9EA"/>
</linearGradient>
<linearGradient id="paint1_linear_325_528" x1="8.55655" y1="2.3999" x2="23.7846" y2="5.32224" gradientUnits="userSpaceOnUse">
<stop stop-color="#424C6E"/>
<stop offset="1" stop-color="#53B9EA"/>
</linearGradient>
<clipPath id="clip0_325_528">
<rect width="24" height="24" fill="white"/>
</clipPath>
</defs>
</svg>
