<svg width="24" height="24" viewBox="0 0 24 24" fill="none" xmlns="http://www.w3.org/2000/svg">
<g clip-path="url(#clip0_327_549)">
<path d="M12 23.1998C18.1856 23.1998 23.2 18.1854 23.2 11.9998C23.2 5.81422 18.1856 0.799805 12 0.799805C5.8144 0.799805 0.799988 5.81422 0.799988 11.9998C0.799988 18.1854 5.8144 23.1998 12 23.1998Z" fill="url(#paint0_linear_327_549)"/>
<path d="M12 21.5999C17.302 21.5999 21.6 17.3018 21.6 11.9999C21.6 6.69797 17.302 2.3999 12 2.3999C6.69809 2.3999 2.40002 6.69797 2.40002 11.9999C2.40002 17.3018 6.69809 21.5999 12 21.5999Z" fill="url(#paint1_linear_327_549)"/>
<path d="M12.0001 5.60059L13.5857 7.21959L9.59293 11.2004L8.00726 9.61945L12.0001 5.60059Z" fill="white"/>
<path d="M14.4072 8.00049L15.9929 9.61949L9.59293 16.0002L8.00726 14.4193L14.4072 8.00049Z" fill="white"/>
<path d="M7.18583 10.4004L8.77149 12.0194L7.18583 13.6003L5.60016 12.0194L7.18583 10.4004Z" fill="white"/>
<path d="M16.8144 10.4004L18.4 12.0194L12.0001 18.4001L10.4144 16.8192L16.8144 10.4004Z" fill="white"/>
</g>
<defs>
<linearGradient id="paint0_linear_327_549" x1="7.9826" y1="0.799806" x2="25.7487" y2="4.2092" gradientUnits="userSpaceOnUse">
<stop stop-color="#424C6E"/>
<stop offset="1" stop-color="#53B9EA"/>
</linearGradient>
<linearGradient id="paint1_linear_327_549" x1="8.55655" y1="2.3999" x2="23.7846" y2="5.32224" gradientUnits="userSpaceOnUse">
<stop stop-color="#424C6E"/>
<stop offset="1" stop-color="#53B9EA"/>
</linearGradient>
<clipPath id="clip0_327_549">
<rect width="24" height="24" fill="white"/>
</clipPath>
</defs>
</svg>
