<svg width="24" height="24" viewBox="0 0 24 24" fill="none" xmlns="http://www.w3.org/2000/svg">
<g clip-path="url(#clip0_325_522)">
<path d="M12 23.1998C18.1856 23.1998 23.2 18.1854 23.2 11.9998C23.2 5.81422 18.1856 0.799805 12 0.799805C5.8144 0.799805 0.799988 5.81422 0.799988 11.9998C0.799988 18.1854 5.8144 23.1998 12 23.1998Z" fill="url(#paint0_linear_325_522)"/>
<path d="M12 21.5999C17.3019 21.5999 21.6 17.3018 21.6 11.9999C21.6 6.69797 17.3019 2.3999 12 2.3999C6.69806 2.3999 2.39999 6.69797 2.39999 11.9999C2.39999 17.3018 6.69806 21.5999 12 21.5999Z" fill="url(#paint1_linear_325_522)"/>
<path d="M15.9161 12.8828C15.8991 12.8817 12.0509 15.1622 12.0005 15.1817C11.9891 15.1752 8.10706 12.8776 8.08859 12.8799C8.09799 12.8937 11.9979 18.4 12.0005 18.4C12.0031 18.4 15.9161 12.8828 15.9161 12.8828Z" fill="white"/>
<path d="M12.0023 5.6001L8.10126 12.1246L12.0023 14.4354L15.9035 12.1246L12.0023 5.6001Z" fill="white"/>
</g>
<defs>
<linearGradient id="paint0_linear_325_522" x1="7.9826" y1="0.799806" x2="25.7487" y2="4.2092" gradientUnits="userSpaceOnUse">
<stop stop-color="#424C6E"/>
<stop offset="1" stop-color="#53B9EA"/>
</linearGradient>
<linearGradient id="paint1_linear_325_522" x1="8.55652" y1="2.3999" x2="23.7846" y2="5.32224" gradientUnits="userSpaceOnUse">
<stop stop-color="#424C6E"/>
<stop offset="1" stop-color="#53B9EA"/>
</linearGradient>
<clipPath id="clip0_325_522">
<rect width="24" height="24" fill="white"/>
</clipPath>
</defs>
</svg>
