<svg width="24" height="24" viewBox="0 0 24 24" fill="none" xmlns="http://www.w3.org/2000/svg">
<g clip-path="url(#clip0_327_557)">
<path d="M12 23.1998C18.1856 23.1998 23.2 18.1854 23.2 11.9998C23.2 5.81422 18.1856 0.799805 12 0.799805C5.8144 0.799805 0.799988 5.81422 0.799988 11.9998C0.799988 18.1854 5.8144 23.1998 12 23.1998Z" fill="url(#paint0_linear_327_557)"/>
<path d="M12 21.5999C17.3019 21.5999 21.6 17.3018 21.6 11.9999C21.6 6.69797 17.3019 2.3999 12 2.3999C6.69806 2.3999 2.39999 6.69797 2.39999 11.9999C2.39999 17.3018 6.69806 21.5999 12 21.5999Z" fill="url(#paint1_linear_327_557)"/>
<path d="M15.2919 9.8109C15.058 9.67724 14.7572 9.67724 14.4899 9.8109L12.6183 10.9138L11.3483 11.6156L9.5102 12.7184C9.27627 12.8521 8.97547 12.8521 8.70813 12.7184L7.27107 11.8495C7.03713 11.7158 6.87 11.4484 6.87 11.1477V9.4767C6.87 9.20937 7.00367 8.94197 7.27107 8.7749L8.70813 7.93937C8.94207 7.8057 9.24287 7.8057 9.5102 7.93937L10.9473 8.8083C11.1812 8.94197 11.3483 9.20937 11.3483 9.5101V10.613L12.6183 9.8777V8.74144C12.6183 8.4741 12.4847 8.2067 12.2173 8.03964L9.54367 6.4689C9.30973 6.33524 9.00893 6.33524 8.7416 6.4689L6.00113 8.0731C5.7338 8.20677 5.60007 8.47417 5.60007 8.7415V11.883C5.60007 12.1504 5.73373 12.4178 6.00113 12.5848L8.7082 14.1556C8.94213 14.2892 9.24293 14.2892 9.51027 14.1556L11.3484 13.0861L12.6184 12.3508L14.4565 11.2814C14.6905 11.1477 14.9913 11.1477 15.2586 11.2814L16.6957 12.1169C16.9296 12.2506 17.0967 12.518 17.0967 12.8187V14.4897C17.0967 14.757 16.9631 15.0244 16.6957 15.1915L15.292 16.027C15.0581 16.1607 14.7573 16.1607 14.4899 16.027L13.0529 15.1915C12.8189 15.0578 12.6518 14.7904 12.6518 14.4897V13.4202L11.3818 14.1555V15.2584C11.3818 15.5257 11.5155 15.7931 11.7829 15.9602L14.4899 17.5309C14.7239 17.6646 15.0247 17.6646 15.292 17.5309L17.9991 15.9602C18.233 15.8265 18.4001 15.5591 18.4001 15.2584V12.0834C18.4001 11.8161 18.2665 11.5487 17.9991 11.3816L15.2919 9.8109Z" fill="white"/>
</g>
<defs>
<linearGradient id="paint0_linear_327_557" x1="7.9826" y1="0.799806" x2="25.7487" y2="4.2092" gradientUnits="userSpaceOnUse">
<stop stop-color="#424C6E"/>
<stop offset="1" stop-color="#53B9EA"/>
</linearGradient>
<linearGradient id="paint1_linear_327_557" x1="8.55652" y1="2.3999" x2="23.7846" y2="5.32224" gradientUnits="userSpaceOnUse">
<stop stop-color="#424C6E"/>
<stop offset="1" stop-color="#53B9EA"/>
</linearGradient>
<clipPath id="clip0_327_557">
<rect width="24" height="24" fill="white"/>
</clipPath>
</defs>
</svg>
