<svg width="24" height="24" viewBox="0 0 24 24" fill="none" xmlns="http://www.w3.org/2000/svg">
<path d="M12 22.6668C17.891 22.6668 22.6666 17.8912 22.6666 12.0002C22.6666 6.10913 17.891 1.3335 12 1.3335C6.10894 1.3335 1.33331 6.10913 1.33331 12.0002C1.33331 17.8912 6.10894 22.6668 12 22.6668Z" fill="url(#paint0_linear_327_536)"/>
<path d="M12 21.3332C17.1547 21.3332 21.3334 17.1545 21.3334 11.9998C21.3334 6.84518 17.1547 2.6665 12 2.6665C6.84536 2.6665 2.66669 6.84518 2.66669 11.9998C2.66669 17.1545 6.84536 21.3332 12 21.3332Z" fill="url(#paint1_linear_327_536)"/>
<path d="M18.2973 11.2099C18.2252 11.1207 18.1356 11.0518 18.0394 10.9916C17.7862 10.8332 17.5092 10.7288 17.2259 10.6401C16.6391 10.4563 16.0368 10.345 15.4294 10.2575C14.7435 10.1587 14.0539 10.1017 13.3622 10.0672C13.3114 10.0647 13.3015 10.0488 13.3017 10.0016C13.3034 9.52503 13.3027 9.04843 13.3028 8.57183C13.3028 8.49649 13.3029 8.49643 13.3768 8.49643H16.8227C16.8897 8.49643 16.8898 8.49629 16.8898 8.43003C16.8898 7.67743 16.8898 6.92483 16.8898 6.17223C16.8898 6.10449 16.8897 6.10449 16.82 6.10449C15.2153 6.10449 13.6107 6.10449 12.006 6.10449C10.4013 6.10449 8.79668 6.10449 7.19201 6.10449C7.12215 6.10449 7.12208 6.10449 7.12208 6.17209V8.42989C7.12208 8.49629 7.12215 8.49643 7.18901 8.49643H9.15368C9.65254 8.49643 10.1515 8.49649 10.6503 8.49629C10.6821 8.49629 10.7093 8.49169 10.7091 8.54143C10.7075 9.03516 10.7079 9.52889 10.7085 10.0226C10.7086 10.0519 10.702 10.0649 10.6692 10.0661C10.5511 10.0706 10.433 10.078 10.3149 10.085C9.93341 10.1076 9.55261 10.1396 9.17275 10.1816C8.83395 10.2191 8.49601 10.2642 8.15988 10.3214C7.65808 10.4069 7.16061 10.5111 6.67688 10.6725C6.40988 10.7616 6.14895 10.8649 5.91388 11.0235C5.81668 11.0891 5.72781 11.1642 5.66408 11.2647C5.57841 11.3998 5.57895 11.5356 5.66415 11.6708C5.70008 11.7278 5.74548 11.7768 5.79628 11.8208C5.95641 11.9594 6.14308 12.0526 6.33621 12.1342C6.73548 12.3027 7.15281 12.4109 7.57508 12.502C7.97708 12.5888 8.38281 12.6537 8.79048 12.707C9.07421 12.7442 9.35868 12.7746 9.64368 12.8C9.97488 12.8296 10.3067 12.851 10.6387 12.8685C10.7081 12.8722 10.7081 12.8738 10.7081 12.9446V17.8255C10.7081 17.8958 10.7081 17.8958 10.7767 17.8958C11.5927 17.8958 12.4087 17.896 13.2248 17.8957C13.3094 17.8957 13.3014 17.9056 13.3014 17.8182C13.3016 16.1982 13.3015 14.578 13.3015 12.958C13.3015 12.9408 13.3025 12.9236 13.3014 12.9066C13.2997 12.8813 13.3085 12.8684 13.3357 12.8681C13.3665 12.8678 13.3973 12.8642 13.4281 12.8629C13.7073 12.8511 13.986 12.831 14.2643 12.8075C14.6774 12.7725 15.0895 12.7272 15.4998 12.6666C15.9983 12.5932 16.4931 12.5015 16.979 12.3669C17.3161 12.2735 17.6477 12.164 17.955 11.9926C18.0813 11.9221 18.1997 11.8406 18.2935 11.7283C18.4344 11.5598 18.4353 11.3808 18.2973 11.2099ZM17.6545 11.587C17.5105 11.7133 17.3373 11.7886 17.1606 11.8555C16.7618 12.0065 16.347 12.0964 15.9289 12.1725C15.4787 12.2545 15.0249 12.3113 14.5695 12.3552C14.1567 12.395 13.7427 12.4196 13.3285 12.442C12.7941 12.471 12.2595 12.4717 11.7668 12.471C11.1229 12.4642 10.5218 12.4422 9.92168 12.397C9.32181 12.3519 8.72408 12.2879 8.13141 12.183C7.66395 12.1004 7.20015 12.0024 6.75775 11.8236C6.64001 11.776 6.52655 11.7198 6.42161 11.6476C6.37201 11.6134 6.32595 11.5751 6.28701 11.5289C6.18421 11.4068 6.18328 11.2842 6.28535 11.162C6.36161 11.0708 6.46095 11.0096 6.56461 10.9556C6.83995 10.812 7.13568 10.7256 7.43515 10.6512C7.97461 10.5171 8.52308 10.4348 9.07475 10.3716C9.59761 10.3116 10.122 10.2722 10.6477 10.247C10.6993 10.2445 10.7101 10.2592 10.7099 10.3081C10.7083 10.8498 10.7095 11.3915 10.7079 11.9332C10.7077 11.9828 10.7187 11.9982 10.7715 12.0014C11.5166 12.0459 12.2619 12.0478 13.0074 12.0169C13.0879 12.0136 13.1681 12.0031 13.2485 12.0018C13.2937 12.001 13.3009 11.9824 13.2998 11.943C13.2973 11.8453 13.299 11.7476 13.299 11.6498C13.299 11.2041 13.299 10.7584 13.299 10.3127C13.299 10.2472 13.2991 10.2463 13.3666 10.2493C13.8221 10.2698 14.2765 10.3031 14.7301 10.3504C15.2722 10.4068 15.8114 10.482 16.344 10.5993C16.6837 10.6741 17.0197 10.7624 17.3379 10.9075C17.4504 10.9588 17.5588 11.0175 17.6526 11.0996C17.8349 11.2595 17.8366 11.4272 17.6545 11.587Z" fill="#FEFEFE"/>
<defs>
<linearGradient id="paint0_linear_327_536" x1="8.17389" y1="1.3335" x2="25.094" y2="4.58054" gradientUnits="userSpaceOnUse">
<stop stop-color="#424C6E"/>
<stop offset="1" stop-color="#53B9EA"/>
</linearGradient>
<linearGradient id="paint1_linear_327_536" x1="8.65219" y1="2.66651" x2="23.4573" y2="5.50766" gradientUnits="userSpaceOnUse">
<stop stop-color="#424C6E"/>
<stop offset="1" stop-color="#53B9EA"/>
</linearGradient>
</defs>
</svg>
