<svg width="25" height="25" viewBox="0 0 25 25" fill="none" xmlns="http://www.w3.org/2000/svg">
    <path d="M12.0873 18.7638C11.8394 18.7895 11.5821 18.8022 11.3187 18.8022C7.07297 18.8022 3.64215 15.2486 3.84319 10.9602C4.02174 7.15306 7.15451 4.02076 10.9621 3.84268C15.2505 3.64257 18.8032 7.07339 18.8032 11.3182C18.8032 11.5806 18.79 11.8375 18.7643 12.0863C18.739 12.3276 18.9124 12.5446 19.1514 12.5854C19.4222 12.6318 19.6706 12.4359 19.6982 12.1627C19.7259 11.8881 19.74 11.606 19.74 11.3182C19.74 6.3578 15.4286 2.38525 10.3566 2.95041C6.49983 3.38108 3.38206 6.49839 2.95139 10.3552C2.38482 15.4276 6.35784 19.7399 11.3187 19.7399C11.6069 19.7399 11.8895 19.7258 12.1632 19.6982C12.4369 19.6706 12.6323 19.4217 12.5859 19.1508C12.5447 18.9118 12.3286 18.7389 12.0873 18.7638Z" fill="white"/>
    <path d="M16.9422 12.9869C14.7631 12.9869 12.987 14.763 12.987 16.9421C12.987 19.1213 14.7631 20.8974 16.9422 20.8974C19.1213 20.8974 20.8974 19.1213 20.8974 16.9421C20.8974 14.763 19.1213 12.9869 16.9422 12.9869ZM19.29 17.0031C19.29 17.2608 19.0838 17.4717 18.8214 17.4717H17.4671V18.8213C17.4671 19.0838 17.2562 19.29 16.9984 19.29H16.886C16.6282 19.29 16.4173 19.0838 16.4173 18.8213V17.4717H15.063C14.8006 17.4717 14.5944 17.2608 14.5944 17.0031V16.8859C14.5944 16.6282 14.8006 16.4173 15.063 16.4173H16.4173V15.063C16.4173 14.8005 16.6282 14.5943 16.886 14.5943H16.9984C17.2562 14.5943 17.4671 14.8005 17.4671 15.063V16.4173H18.8214C19.0838 16.4173 19.29 16.6282 19.29 16.8859V17.0031Z" fill="white"/>
    <path d="M11.3187 10.8495C10.6973 10.8495 10.1917 10.3439 10.1917 9.7225C10.1917 9.1011 10.6973 8.59545 11.3187 8.59545C11.9401 8.59545 12.4458 9.1011 12.4458 9.7225C12.4458 9.98118 12.6557 10.1911 12.9144 10.1911C13.1731 10.1911 13.383 9.98118 13.383 9.7225C13.383 8.78524 12.7518 8.00123 11.8947 7.75005V6.82123C11.8947 6.56254 11.6847 6.3526 11.4261 6.3526C11.1674 6.3526 10.9574 6.56254 10.9574 6.82123V7.69475C9.99112 7.86673 9.25397 8.70792 9.25397 9.7225C9.25397 10.8608 10.18 11.7868 11.3183 11.7868C11.9397 11.7868 12.4453 12.2929 12.4453 12.9143C12.4453 13.5357 11.9397 14.0414 11.3183 14.0414C10.6969 14.0414 10.1912 13.5357 10.1912 12.9143C10.1912 12.6552 9.98128 12.4457 9.72259 12.4457C9.46391 12.4457 9.25397 12.6552 9.25397 12.9143C9.25397 13.9289 9.99112 14.7705 10.9574 14.9421V15.8165C10.9574 16.0757 11.1674 16.2851 11.4261 16.2851C11.6847 16.2851 11.8947 16.0757 11.8947 15.8165V14.8868C12.7518 14.6356 13.383 13.8511 13.383 12.9143C13.383 11.7756 12.457 10.8495 11.3187 10.8495Z" fill="white"/>
</svg>
