<svg width="2339" height="750" viewBox="0 0 2339 750" fill="none" xmlns="http://www.w3.org/2000/svg">
    <g clip-path="url(#clip0_1_4)">
        <path d="M31.9168 370.575C109.317 289.465 43.0468 299.575 77.1868 261.085L42.4868 208.535C20.4268 200.755 36.5568 366.045 31.9168 370.575ZM641.007 374.085C654.247 379.635 647.317 213.175 646.637 209.385C636.167 196.275 584.537 293.225 579.437 295.975C608.917 350.875 559.707 318.765 641.007 374.085ZM296.087 597.865C291.007 586.295 181.227 611.345 179.777 625.085C254.707 647.725 381.297 805.665 296.087 597.865ZM565.737 498.165C554.247 491.415 515.737 606.325 524.947 610.705C579.917 573.065 689.347 548.105 565.737 498.165ZM558.007 474.425C559.945 474.909 561.764 475.781 563.356 476.988C564.947 478.196 566.277 479.713 567.265 481.449C568.253 483.185 568.878 485.103 569.104 487.088C569.33 489.072 569.15 491.082 568.577 492.995L626.577 524.745C660.007 518.915 645.277 423.045 647.927 399.305C638.977 397.775 633.517 387.095 637.537 378.825L582.697 338.615C549.817 336.105 562.577 456.605 558.007 474.425ZM96.3668 442.425C88.8968 434.995 92.9468 420.775 103.107 418.365C89.8968 354.435 119.737 236.365 39.3868 374.575C47.6068 382.205 43.0168 397.575 31.9268 399.305C37.7268 481.875 5.74677 584.505 96.3568 442.445L96.3668 442.425ZM553.067 215.505C553.341 218.55 552.661 221.604 551.12 224.244C549.578 226.884 547.253 228.978 544.467 230.235C550.167 245.565 549.837 296.135 574.547 292.715C603.387 236.555 692.647 163.805 553.067 215.505ZM543.577 203.075C547.467 217.325 610.577 190.185 618.767 189.565C628.497 161.415 572.337 142.635 554.767 130.285C554.807 130.295 543.577 203.075 543.577 203.075V203.075ZM426.007 604.235C421.497 619.235 403.597 628.545 388.387 622.955C388.517 631.955 341.547 700.065 363.867 703.715L500.007 625.095C505.767 617.515 427.787 606.165 426.007 604.235ZM437.497 117.235C439.177 121.865 439.682 126.839 438.966 131.712C438.251 136.585 436.337 141.204 433.397 145.155C452.767 167.845 498.007 199.435 526.667 208.155C542.577 208.855 546.437 137.305 549.377 127.155C539.277 122.925 500.217 92.4853 490.007 104.155C478.097 93.8753 449.507 111.905 437.477 117.235H437.497ZM409.817 97.9953C450.677 113.245 432.167 112.805 475.717 92.9053C487.187 84.1853 349.297 14.1953 347.307 10.5053C354.477 14.9953 394.807 114.055 409.817 97.9953ZM503.317 353.175C516.247 448.685 415.117 457.335 541.507 481.975C556.617 483.795 555.667 357.275 556.807 348.085C526.697 332.465 533.127 337.645 503.317 353.145V353.175ZM481.497 278.175C493.73 298.735 500.863 321.569 502.897 346.675C510.647 340.495 540.897 333.525 531.367 318.845C544.917 303.365 487.557 284.995 481.497 278.155V278.175ZM364.237 199.495C433.927 204.425 473.987 278.735 536.557 302.125C561.617 292.695 540.957 250.055 538.707 231.495C536.479 231.524 534.274 231.047 532.257 230.099C530.241 229.152 528.466 227.759 527.066 226.026C525.666 224.293 524.677 222.265 524.175 220.094C523.673 217.923 523.67 215.667 524.167 213.495L473.167 189.915C455.747 176.225 434.587 141.715 409.787 156.915C392.217 142.485 373.127 191.135 364.237 199.495ZM342.097 197.865C360.517 209.695 382.097 158.485 390.847 150.015C376.007 138.665 377.477 112.585 393.407 102.995L342.407 13.9253L342.097 197.865ZM177.097 382.925C174.287 358.645 176.477 331.735 183.777 309.445C47.5668 269.565 156.307 340.485 177.077 382.925H177.097ZM204.557 455.995C187.227 415.125 144.677 341.995 111.557 308.825C89.8768 302.475 112.337 411.175 108.957 417.895C122.937 436.795 180.137 450.205 204.557 455.995ZM218.637 473.345C218.297 461.045 128.347 442.605 120.237 439.085C117.077 445.795 108.007 449.175 101.127 445.855L48.4568 519.295C45.8768 544.245 211.857 471.235 218.637 473.375V473.345ZM229.767 484.345C228.007 473.045 36.6468 529.605 55.8468 553.505C193.887 645.615 164.647 604.295 229.767 484.375V484.345ZM267.007 509.865C255.287 504.094 244.329 496.889 234.387 488.415L174.877 608.845C172.987 619.845 276.777 583.845 279.777 584.465C291.627 571.845 271.917 524.645 267.007 509.865ZM321.157 524.995C252.727 508.545 280.577 517.425 292.667 568.705C300.277 575.635 318.007 527.435 321.157 524.995ZM365.957 523.995C320.537 521.825 321.837 535.575 303.607 571.875C311.557 577.695 310.427 591.535 301.707 596.025C329.007 673.135 334.007 750.275 383.007 620.465C363.467 610.245 364.237 578.335 384.207 569.005L365.957 523.995ZM449.957 483.875C404.257 534.965 350.807 494.115 389.697 566.775C409.367 560.645 430.067 577.935 427.267 598.455C432.577 597.455 505.547 621.405 505.467 608.455L449.957 483.875ZM455.757 478.365C450.757 478.735 512.017 604.895 510.837 606.125C522.357 604.315 552.247 491.435 539.917 487.615C527.927 488.105 460.197 453.995 455.737 478.365H455.757ZM199.157 189.365C212.517 184.645 171.837 121.075 170.607 114.305C168.376 114.896 166.037 114.955 163.78 114.477C161.522 113.999 159.407 112.999 157.607 111.555C154.397 118.155 40.7868 167.005 58.4668 180.965L199.157 189.365ZM200.157 199.615C190.157 191.735 45.5068 176.235 47.4268 205.365C100.847 303.655 134.797 247.325 200.157 199.565V199.615ZM226.277 200.055C222.437 208.055 210.347 210.425 203.757 204.295L120.827 268.365C119.247 295.935 166.567 297.435 185.657 303.875C193.517 282.269 206.117 262.792 223.457 245.445C255.347 211.045 293.007 216.915 226.277 199.995V200.055ZM223.737 182.825C222.737 197.875 267.617 205.225 277.877 209.135C296.486 201.892 316.259 198.1 336.227 197.945L336.567 12.6653L223.737 182.825ZM213.317 178.485C222.807 190.115 324.667 11.4753 329.907 11.9953C325.547 16.7753 181.247 93.4053 181.467 100.045C170.007 106.625 204.257 177.995 213.317 178.435V178.485ZM341.497 0.345251L479.007 79.7353C487.197 69.8453 505.177 76.1953 504.657 89.4553C495.887 95.1153 622.407 160.185 622.657 162.685C625.386 158.89 628.98 155.799 633.141 153.668C637.303 151.538 641.912 150.43 646.587 150.435C680.447 149.615 686.647 201.235 653.767 208.495C652.487 222.625 650.427 382.875 665.497 384.955C649.807 391.335 653.577 495.805 653.777 512.065C709.617 521.065 662.977 602.755 626.907 558.625L527.857 615.825C531.087 624.995 523.787 635.335 513.927 635.115C509.047 618.905 373.817 706.955 366.747 708.815C375.667 727.535 360.857 750.975 339.867 750.415C318.867 750.875 304.057 727.635 312.987 708.815C305.867 705.815 170.867 619.555 165.817 635.115C155.997 635.285 148.677 625.115 151.887 615.825L52.8868 558.635C17.3368 602.465 -30.4132 521.345 26.0068 512.065C26.6868 495.065 29.4168 391.685 14.2768 384.965C30.0468 382.965 26.2768 225.365 25.9968 211.665C-9.99323 208.995 -7.66323 152.075 29.0068 152.885C53.6268 178.325 129.797 118.185 153.817 106.885C148.697 97.6053 155.997 85.0753 166.817 85.3953C177.297 109.665 334.487 -7.13475 341.497 0.345251Z" fill="black"/>
        <circle cx="340" cy="356" r="209" fill="black"/>
        <circle cx="339.5" cy="356.5" r="228.5" fill="black"/>
        <path d="M340.018 147C455.455 147 549.037 240.58 549.037 356.022C549.037 471.464 455.457 565.04 340.02 565.04C224.583 565.04 131 471.454 131 356.022C131 240.59 224.58 147 340.018 147Z" stroke="white" stroke-width="7.41"/>
        <path fill-rule="evenodd" clip-rule="evenodd" d="M496.923 477.404C464.373 439.025 431.048 396.713 397.423 353.662C429.567 309.686 461.434 267.65 492.613 230.644C453.097 223.948 413.193 219.782 373.146 218.17C361.236 237.547 349.303 257.281 337.367 277.186C321.619 257.186 305.867 237.446 290.155 218.275C249.48 220.013 208.961 224.394 168.855 231.391C200.607 264.632 233.097 302.852 265.885 343.091C234.745 389.732 203.873 435.566 173.648 477.619C212.669 479.314 252.767 480.371 293.13 480.789C304.875 461.198 316.643 441.418 328.413 421.628C344.162 441.414 359.913 461.228 375.625 480.757C416.637 480.296 457.353 479.179 496.923 477.404Z" fill="white"/>
        <path fill-rule="evenodd" clip-rule="evenodd" d="M511.775 472.748C480.018 435.304 447.504 394.022 414.695 352.022C446.056 309.117 477.148 268.104 507.568 231.999C469.014 225.464 430.082 221.397 391.009 219.822C379.389 238.728 367.746 257.981 356.101 277.402C340.737 257.894 325.365 238.63 310.037 219.922C270.353 221.62 230.821 225.895 191.691 232.722C222.67 265.155 254.369 302.444 286.359 341.7C255.977 387.206 225.859 431.925 196.367 472.954C234.439 474.608 273.56 475.639 312.941 476.047C324.401 456.933 335.882 437.634 347.366 418.326C362.731 437.626 378.101 456.965 393.428 476.016C433.442 475.57 473.167 474.48 511.774 472.748H511.775Z" stroke="white" stroke-width="3" stroke-linejoin="round"/>
        <path fill-rule="evenodd" clip-rule="evenodd" d="M248.437 352.675C248.437 368.386 251.894 382.124 258.885 394.484C265.99 406.999 276.466 417.268 289.12 424.122C302.32 431.455 317.98 435.36 336.029 435.343C351.544 435.343 365.396 432.379 377.529 426.767C389.04 421.594 399.135 413.723 406.959 403.822C414.481 394.182 419.59 382.884 421.859 370.869C402.759 369.781 383.233 369.06 363.571 368.706C361.062 374.012 357.075 378.482 352.088 381.578C346.951 384.7 341.033 386.301 335.022 386.193C325.575 386.193 318.119 382.879 312.653 376.251C307.184 369.626 304.458 360.74 304.453 349.48C304.448 338.22 307.18 329.157 312.653 322.293C318.126 315.429 325.575 311.872 335.022 311.869C341.069 311.777 347.007 313.478 352.088 316.758C357.09 320.05 361.067 324.68 363.567 330.122C383.229 330.835 402.754 332.29 421.855 334.486C419.48 321.793 414.398 309.761 406.955 299.208C398.98 287.827 388.355 278.559 375.997 272.201C363.64 265.844 349.921 262.589 336.025 262.717C317.976 262.674 302.313 267.468 289.116 275.962C276.299 284.196 265.872 295.654 258.877 309.187C251.887 322.609 248.302 337.543 248.437 352.675V352.675Z" fill="black"/>
        <path fill-rule="evenodd" clip-rule="evenodd" d="M385.504 396.642C389.209 396.66 392.826 397.776 395.897 399.848C398.969 401.919 401.358 404.855 402.763 408.283C404.168 411.711 404.526 415.479 403.792 419.11C403.058 422.742 401.265 426.075 398.639 428.688C396.012 431.301 392.671 433.078 389.036 433.794C385.4 434.51 381.635 434.134 378.213 432.711C374.792 431.289 371.869 428.886 369.812 425.804C367.756 422.722 366.658 419.1 366.658 415.395C366.67 410.409 368.663 405.632 372.197 402.116C375.732 398.599 380.518 396.63 385.504 396.642V396.642Z" fill="black" stroke="black" stroke-width="12.87"/>
        <path fill-rule="evenodd" clip-rule="evenodd" d="M385.504 396.642C389.209 396.66 392.826 397.776 395.897 399.848C398.969 401.919 401.358 404.855 402.763 408.283C404.168 411.711 404.526 415.479 403.792 419.11C403.058 422.742 401.265 426.075 398.639 428.688C396.012 431.301 392.671 433.078 389.036 433.794C385.4 434.51 381.635 434.134 378.213 432.711C374.792 431.289 371.869 428.886 369.812 425.804C367.756 422.722 366.658 419.1 366.658 415.395C366.67 410.409 368.663 405.632 372.197 402.116C375.732 398.599 380.518 396.63 385.504 396.642V396.642Z" fill="black" stroke="black" stroke-width="12.87"/>
        <path d="M418.2 444.413C423.153 444.413 427.169 440.397 427.169 435.444C427.169 430.491 423.153 426.475 418.2 426.475C413.247 426.475 409.231 430.491 409.231 435.444C409.231 440.397 413.247 444.413 418.2 444.413Z" fill="black"/>
        <path fill-rule="evenodd" clip-rule="evenodd" d="M417.537 457.072C418.806 457.078 420.044 457.46 421.096 458.17C422.147 458.879 422.965 459.884 423.446 461.058C423.927 462.232 424.05 463.522 423.799 464.765C423.547 466.009 422.933 467.15 422.034 468.045C421.135 468.939 419.991 469.548 418.746 469.793C417.501 470.038 416.212 469.909 415.04 469.422C413.869 468.935 412.868 468.112 412.164 467.057C411.46 466.002 411.084 464.762 411.084 463.493C411.086 462.648 411.255 461.811 411.58 461.031C411.906 460.251 412.381 459.542 412.981 458.946C413.58 458.35 414.291 457.877 415.073 457.556C415.854 457.234 416.692 457.07 417.537 457.072V457.072Z" fill="black"/>
        <path d="M444.277 440.648C447.254 440.648 449.668 438.234 449.668 435.257C449.668 432.28 447.254 429.866 444.277 429.866C441.3 429.866 438.886 432.28 438.886 435.257C438.886 438.234 441.3 440.648 444.277 440.648Z" fill="black"/>
        <path d="M425.652 415.319C428.629 415.319 431.043 412.905 431.043 409.928C431.043 406.951 428.629 404.537 425.652 404.537C422.675 404.537 420.261 406.951 420.261 409.928C420.261 412.905 422.675 415.319 425.652 415.319Z" fill="black"/>
        <path fill-rule="evenodd" clip-rule="evenodd" d="M385.021 461.57C385.869 461.574 386.697 461.829 387.4 462.304C388.104 462.778 388.651 463.45 388.972 464.235C389.294 465.019 389.376 465.882 389.208 466.713C389.04 467.545 388.629 468.308 388.028 468.906C387.427 469.504 386.662 469.911 385.83 470.075C384.998 470.239 384.136 470.153 383.352 469.827C382.569 469.502 381.9 468.951 381.429 468.246C380.958 467.54 380.707 466.711 380.707 465.863C380.708 465.298 380.82 464.738 381.038 464.216C381.255 463.695 381.573 463.221 381.974 462.822C382.375 462.423 382.85 462.107 383.373 461.893C383.896 461.678 384.456 461.568 385.021 461.57V461.57Z" fill="black"/>
        <path d="M336.028 365.131C344.701 365.131 351.731 358.101 351.731 349.428C351.731 340.755 344.701 333.725 336.028 333.725C327.356 333.725 320.325 340.755 320.325 349.428C320.325 358.101 327.356 365.131 336.028 365.131Z" fill="black"/>
        <path fill-rule="evenodd" clip-rule="evenodd" d="M450.425 448.416C453.045 448.429 455.603 449.218 457.776 450.683C459.948 452.148 461.638 454.224 462.631 456.649C463.625 459.074 463.878 461.738 463.359 464.307C462.84 466.875 461.572 469.232 459.714 471.08C457.857 472.929 455.493 474.185 452.922 474.692C450.351 475.198 447.688 474.932 445.268 473.926C442.849 472.92 440.781 471.22 439.327 469.041C437.872 466.861 437.096 464.299 437.096 461.679C437.106 458.153 438.515 454.775 441.015 452.288C443.514 449.801 446.899 448.408 450.425 448.416V448.416Z" fill="black"/>
        <path d="M785.2 373.8C785.2 357 788.56 342.04 795.28 328.92C802.16 315.8 811.92 305.64 824.56 298.44C837.2 291.08 852.08 287.4 869.2 287.4C883.92 287.4 897.04 290.2 908.56 295.8C920.24 301.24 929.68 309 936.88 319.08C944.24 329.16 949.12 340.92 951.52 354.36H895.36C892.8 348.76 889.12 344.44 884.32 341.4C879.68 338.2 874.32 336.6 868.24 336.6C859.28 336.6 852.16 339.96 846.88 346.68C841.76 353.4 839.2 362.44 839.2 373.8C839.2 385.16 841.76 394.2 846.88 400.92C852.16 407.64 859.28 411 868.24 411C874.32 411 879.68 409.48 884.32 406.44C889.12 403.24 892.8 398.84 895.36 393.24H951.52C949.12 406.68 944.24 418.44 936.88 428.52C929.68 438.6 920.24 446.44 908.56 452.04C897.04 457.48 883.92 460.2 869.2 460.2C852.08 460.2 837.2 456.6 824.56 449.4C811.92 442.04 802.16 431.8 795.28 418.68C788.56 405.56 785.2 390.6 785.2 373.8ZM1163.9 289.08V459H1110.62V392.76H1059.98V459H1006.7V289.08H1059.98V350.28H1110.62V289.08H1163.9ZM1332.84 433.32H1276.2L1267.8 459H1211.88L1274.04 289.08H1335.48L1397.4 459H1341.24L1332.84 433.32ZM1319.88 393.24L1304.52 345.96L1289.16 393.24H1319.88ZM1498.78 289.08V459H1445.5V289.08H1498.78ZM1721.8 459H1668.52L1612.12 373.56V459H1558.84V289.08H1612.12L1668.52 375.96V289.08H1721.8V459ZM1835.16 331.56V352.44H1887.96V392.52H1835.16V416.52H1895.16V459H1781.88V289.08H1895.16V331.56H1835.16ZM2059.47 459L2028.27 414.84L2002.35 459H1941.63L1997.55 371.4L1939.23 289.08H2002.35L2032.35 331.56L2057.31 289.08H2118.03L2063.07 375L2122.59 459H2059.47Z" fill="black"/>
    </g>
    <defs>
        <clipPath id="clip0_1_4">
            <rect width="2339" height="750" fill="white"/>
        </clipPath>
    </defs>
</svg>
