<svg width="18" height="18" viewBox="0 0 18 18" fill="none" xmlns="http://www.w3.org/2000/svg">
    <path d="M6.56999 1.2975H6.66749C9.99749 1.2975 11.6025 2.61 11.88 5.55C11.91 5.8575 11.685 6.135 11.37 6.165C11.07 6.195 10.785 5.9625 10.755 5.655C10.5375 3.3 9.42749 2.4225 6.65999 2.4225H6.56249C3.50999 2.4225 2.42999 3.5025 2.42999 6.555V11.445C2.42999 14.4975 3.50999 15.5775 6.56249 15.5775H6.65999C9.44249 15.5775 10.5525 14.685 10.755 12.285C10.7925 11.9775 11.055 11.745 11.37 11.775C11.685 11.7975 11.91 12.075 11.8875 12.3825C11.6325 15.3675 10.02 16.7025 6.66749 16.7025H6.56999C2.88749 16.7025 1.31249 15.1275 1.31249 11.445V6.555C1.31249 2.8725 2.88749 1.2975 6.56999 1.2975Z" fill="white"/>
    <path d="M6.74997 8.4375H15.285C15.5925 8.4375 15.8475 8.6925 15.8475 9C15.8475 9.3075 15.5925 9.5625 15.285 9.5625H6.74997C6.44247 9.5625 6.18747 9.3075 6.18747 9C6.18747 8.6925 6.44247 8.4375 6.74997 8.4375Z" fill="white"/>
    <path d="M13.6125 5.925C13.755 5.925 13.8975 5.9775 14.01 6.09L16.5225 8.6025C16.74 8.82 16.74 9.18 16.5225 9.3975L14.01 11.91C13.7925 12.1275 13.4325 12.1275 13.215 11.91C12.9975 11.6925 12.9975 11.3325 13.215 11.115L15.33 9L13.215 6.885C12.9975 6.6675 12.9975 6.3075 13.215 6.09C13.32 5.9775 13.47 5.925 13.6125 5.925Z" fill="white"/>
</svg>
