<svg width="18" height="18" viewBox="0 0 18 18" fill="none" xmlns="http://www.w3.org/2000/svg">
    <g clip-path="url(#clip0_77_8)">
        <path d="M16.664 7.20006H15.314V4.94991C15.3141 4.70162 15.113 4.50015 14.8645 4.50002C14.8644 4.50002 14.8641 4.50002 14.864 4.50002H11.2639C11.0154 4.50002 10.814 4.70148 10.814 4.94991C10.814 5.19848 11.0154 5.39994 11.2639 5.39994H14.414V7.19992H2.71399C2.21685 7.19992 1.81392 6.797 1.81392 6.3C1.81392 5.80286 2.21685 5.39994 2.71399 5.39994H6.76398C7.01255 5.39994 7.21401 5.19848 7.21401 4.94991C7.21401 4.70134 7.01255 4.49988 6.76398 4.49988H2.71399C1.72027 4.50084 0.914963 5.30614 0.914001 6.3V16.2C0.9151 17.1937 1.72027 17.9989 2.71399 18H16.664C16.9125 18 17.114 17.7985 17.114 17.5499V7.64995C17.1141 7.40166 16.9129 7.2002 16.6645 7.20006C16.6644 7.20006 16.6642 7.20006 16.664 7.20006V7.20006ZM2.71399 17.1C2.21713 17.0995 1.81447 16.6968 1.81392 16.2V7.84963C2.08625 8.01168 2.39703 8.0982 2.71399 8.09998H16.2141V10.8H13.064C12.8157 10.7999 12.6142 11.0011 12.6141 11.2495V11.2501V13.9501C12.6141 14.1985 12.8156 14.4 13.064 14.4H16.2141V17.1H2.71399ZM16.2139 13.5001H13.514V11.7H16.2139V13.5001Z" fill="url(#paint0_linear_77_8)"/>
        <path d="M7.04527 2.60141L8.564 1.3859V5.84995C8.564 6.09852 8.76547 6.29998 9.01403 6.29998C9.26246 6.29998 9.46393 6.09852 9.46393 5.84995V1.3859L10.9828 2.60127C11.1768 2.75659 11.4602 2.72514 11.6156 2.53096C11.7709 2.33677 11.7393 2.05346 11.5452 1.89814L9.29529 0.0981566C9.13063 -0.0327189 8.89744 -0.0327189 8.73278 0.0981566L6.48277 1.89814C6.28858 2.05346 6.257 2.33677 6.41245 2.53096C6.56777 2.72514 6.85109 2.75659 7.04513 2.60127V2.60141H7.04527Z" fill="url(#paint1_linear_77_8)"/>
    </g>
    <defs>
        <linearGradient id="paint0_linear_77_8" x1="6.10856" y1="4.49988" x2="18.7596" y2="7.41319" gradientUnits="userSpaceOnUse">
            <stop stop-color="#424C6E"/>
            <stop offset="1" stop-color="#53B9EA"/>
        </linearGradient>
        <linearGradient id="paint1_linear_77_8" x1="8.04541" y1="4.43991e-07" x2="12.3694" y2="0.711328" gradientUnits="userSpaceOnUse">
            <stop stop-color="#424C6E"/>
            <stop offset="1" stop-color="#53B9EA"/>
        </linearGradient>
        <clipPath id="clip0_77_8">
            <rect width="18" height="18" fill="white"/>
        </clipPath>
    </defs>
</svg>