<svg width="24" height="24" viewBox="0 0 24 24" fill="none" xmlns="http://www.w3.org/2000/svg">
<path d="M24 17.8844C24 19.2005 22.9548 20.2457 21.6774 20.2457H2.32258C1.04516 20.2457 0 19.2005 0 17.8844V6.11666C0 4.80053 1.04516 3.75537 2.32258 3.75537H21.6774C22.9548 3.75537 24 4.80053 24 6.11666V17.8844Z" fill="#273375"/>
<path d="M2.32257 3.75537H21.6774C22.9548 3.75537 24 4.80053 24 6.11666V17.8844C24 19.2005 22.9548 20.2457 21.6774 20.2457L2.32257 3.75537Z" fill="#192760"/>
<path d="M2.32257 3.75537H21.6774C22.9548 3.75537 24 4.80053 24 6.11666V17.8844C24 19.2005 22.9548 20.2457 21.6774 20.2457L2.32257 3.75537Z" fill="#192760"/>
<path d="M24 17.8843C24 19.2004 22.9548 20.2456 21.6774 20.2456H2.32258C1.04516 20.2456 0 19.2004 0 17.8843H24Z" fill="#101F4F"/>
<path d="M2.32257 3.75537H21.6774C22.9548 3.75537 24 4.80053 24 6.11666V10.4134L2.32257 3.75537Z" fill="#101F4F"/>
<path d="M6.38031 13.7075L6.70548 14.7541L7.74193 14.3477L7.14241 15.2724L8.10773 15.8312L6.97983 15.9125L7.14241 16.9998L6.38031 16.197L5.61822 16.9998L5.7808 15.9125L4.67322 15.8211L5.63854 15.2622L5.0187 14.3477L6.06531 14.744L6.38031 13.7075Z" fill="white"/>
<path d="M17.6516 16.104L17.8064 16.6072L18.271 16.4137L18 16.8395L18.4258 17.1105L17.9226 17.1492L18 17.6524L17.6516 17.2653L17.3032 17.6524L17.3806 17.1492L16.8774 17.1105L17.3032 16.8395L17.0323 16.4137L17.4968 16.6072L17.6516 16.104Z" fill="white"/>
<path d="M14.8258 11.6138L14.9806 12.117L15.4452 11.9234L15.1742 12.3493L15.6 12.6202L15.0968 12.6589L15.1742 13.1622L14.8258 12.7751L14.4774 13.1622L14.5548 12.6589L14.0516 12.6202L14.4774 12.3493L14.2064 11.9234L14.671 12.117L14.8258 11.6138Z" fill="white"/>
<path d="M17.6516 8.55566L17.8064 9.05889L18.271 8.86534L18 9.29115L18.4258 9.56212L17.9226 9.60083L18 10.1041L17.6516 9.71695L17.3032 10.1041L17.3806 9.60083L16.8774 9.56212L17.3032 9.29115L17.0323 8.86534L17.4968 9.05889L17.6516 8.55566Z" fill="white"/>
<path d="M20.1677 10.8784L20.3226 11.3816L20.7871 11.1881L20.5161 11.6139L20.9419 11.8849L20.4387 11.9236L20.5161 12.4268L20.1677 12.0397L19.8193 12.4268L19.8968 11.9236L19.3548 11.8462L19.7806 11.5752L19.5097 11.1494L19.9742 11.3429L20.1677 10.8784Z" fill="white"/>
<path d="M18.7742 13.1621L18.8903 13.4718L19.2 13.5105L18.9677 13.6653L19.0452 13.975L18.7742 13.8202L18.5032 13.975L18.5806 13.6653L18.3484 13.4718L18.6581 13.4331L18.7742 13.1621Z" fill="white"/>
<path d="M8.30459 5.59273L10.1419 3.75537H7.20001V5.25344L8.30459 5.59273Z" fill="#101F4F"/>
<path d="M5.53549 6.6586V3.75537H2.63226L5.53549 6.6586Z" fill="#192760"/>
<path d="M5.53549 3.75537H2.63226L2.9102 4.03331L5.53549 4.81287V3.75537Z" fill="#101F4F"/>
<path d="M12.6581 7.67192V7.24166H7.89436L11.3807 3.75537H10.1419L7.20001 6.69731V3.75537H5.53549V6.6586L2.63226 3.75537H2.32259C2.05162 3.75537 1.77581 3.80376 1.50485 3.90537L4.87428 7.24166H0.00808716V7.31666V7.6215V7.67192V8.51182V8.94208V8.94247H4.95001L1.35485 12.5038H2.59355L5.53549 9.56182V12.5038H7.20001V9.60053L10.1032 12.5038H11.4387L7.81452 8.94247H12.6532V8.94208H12.6581V8.51182H12.6532V7.67192H12.6581Z" fill="white"/>
<path d="M12.6581 7.67192V7.24166H7.89436L11.3807 3.75537H10.1419L7.20001 6.69731V3.75537H5.53549V6.6586L7.81452 8.94247H12.6532V8.94208H12.6581V8.51182H12.6532V7.67192H12.6581Z" fill="#D9ECED"/>
<path d="M1.89676 3.79408C1.92095 3.78924 1.94998 3.76021 1.97418 3.75537C1.94998 3.76021 1.92579 3.78924 1.89676 3.79408Z" fill="white"/>
<path d="M8.76288 11.1636L10.1032 12.5039H10.7613L9.40643 11.1636H8.76288Z" fill="#D9ECED"/>
<path d="M3.32419 11.1636L2.00806 12.5039H2.59354L3.93386 11.1636H3.32419Z" fill="#D9ECED"/>
<path d="M11.1097 12.5039H11.4387L10.0742 11.1636H9.76935L11.1097 12.5039Z" fill="#D9ECED"/>
<path d="M7.19998 11.1636H6.77417V12.5039H7.19998V11.1636Z" fill="#D9ECED"/>
<path d="M5.88385 11.1636H5.53546V12.5039H5.88385V11.1636Z" fill="#D9ECED"/>
<path d="M2.70967 11.1636L1.35483 12.5039H1.62096L2.93709 11.1636H2.70967Z" fill="#D9ECED"/>
<path d="M1.97903 3.7553C1.99839 3.7553 2.01774 3.76014 2.04194 3.7553C2.02258 3.76014 1.99839 3.75046 1.97903 3.7553Z" fill="#E51D35"/>
<path d="M6.78228 7.67192V7.66505V7.24166V3.75537H5.88388V7.24166V7.66021V7.67192H0.00808716V8.51182H5.53549H5.88388V8.55053V8.94208V12.5038H6.7742V8.94208V8.55053V8.51182H12.6532V7.67192H6.78228Z" fill="#E51D35"/>
<path d="M5.11695 7.24166H5.5355L2.04195 3.75537C1.92582 3.77473 1.82905 3.79892 1.71292 3.83763L5.11695 7.24166Z" fill="#E51D35"/>
<path d="M7.1691 8.94189L10.7613 12.5036H11.1097L7.54802 8.94189H7.1691Z" fill="#E51D35"/>
<path d="M1.62097 12.5036H2.00807L5.50002 8.94189H5.1136L1.62097 12.5036Z" fill="#E51D35"/>
<path d="M11.0847 3.75537C11.0847 3.75537 10.7306 3.75581 10.6745 3.75537L7.181 7.24166H7.59955L11.0847 3.75537Z" fill="#AF0026"/>
<path d="M6.78228 7.67192V7.557V4.30577V4.19085V3.87029V3.75537H5.88388V3.87029V4.19085V4.30577V6.78924V6.90416V7.00239L6.78228 7.91874L7.3637 8.51182H12.6532V7.67192H6.78228Z" fill="#AF0026"/>
<path d="M2.9371 11.1636L1.62097 12.5039H2.00807L3.3242 11.1636H2.9371Z" fill="#AF0026"/>
<path d="M6.7742 11.1636H5.88388V12.5039H6.7742V11.1636Z" fill="#AF0026"/>
<path d="M9.40646 11.1636L10.7613 12.5039H11.1097L9.76937 11.1636H9.40646Z" fill="#AF0026"/>
</svg>
