<svg width="24" height="24" viewBox="0 0 24 24" fill="none" xmlns="http://www.w3.org/2000/svg">
<path d="M24 17.8839C24 19.2001 22.9548 20.2452 21.6774 20.2452H2.32256C1.04517 20.2452 0 19.2001 0 17.8839V6.11616C0 4.80006 1.04517 3.75488 2.32256 3.75488H21.6774C22.9548 3.75488 24 4.80006 24 6.11616V17.8839H24Z" fill="#009B3A"/>
<path d="M2.32257 3.75488H21.6774C22.9548 3.75488 24 4.80006 24 6.11616V17.8839C24 19.2 22.9548 20.2452 21.6774 20.2452" fill="#007C29"/>
<path d="M2.32257 3.75488H21.6774C22.9548 3.75488 24 4.80006 24 6.11616V10.413" fill="#006D21"/>
<path d="M24 17.8838C24 19.1999 22.9548 20.2451 21.6774 20.2451H2.32256C1.04517 20.2451 0 19.1999 0 17.8838" fill="#006D21"/>
<path d="M1.47098 12.0001L12 18.7356L22.529 12.0001L12 5.26465L1.47098 12.0001Z" fill="#FEDF00"/>
<path d="M12 18.7354L13.3161 17.8838H10.6839L12 18.7354Z" fill="#FCC000"/>
<path d="M7.47098 8.16785L16.529 15.8324L22.529 12.0001L12 5.26465L7.47098 8.16785Z" fill="#FCC000"/>
<path d="M12 16.4516C14.4586 16.4516 16.4516 14.4585 16.4516 12C16.4516 9.5414 14.4586 7.54834 12 7.54834C9.54143 7.54834 7.54837 9.5414 7.54837 12C7.54837 14.4585 9.54143 16.4516 12 16.4516Z" fill="#002776"/>
<path d="M12 7.54834C10.6452 7.54834 9.44517 8.1677 8.63226 9.09671L15.4065 14.8645C16.0645 14.0903 16.4516 13.0839 16.4516 12C16.4516 9.56125 14.4387 7.54834 12 7.54834Z" fill="#021E47"/>
<path d="M7.92043 10.2162C7.82246 10.44 7.74231 10.6734 7.68188 10.9145C8.27888 10.8098 8.89398 10.7567 9.52257 10.7611C12.1097 10.7611 14.4661 11.7238 16.2552 13.3108C16.3241 13.0869 16.3756 12.8554 16.4086 12.618C14.5334 11.0486 12.1184 10.103 9.48381 10.103C8.9529 10.103 8.43099 10.1421 7.92043 10.2162Z" fill="white"/>
</svg>
