<svg width="24" height="24" viewBox="0 0 24 24" fill="none" xmlns="http://www.w3.org/2000/svg">
<g clip-path="url(#clip0_321_650)">
<path d="M7.74194 3.87109H2.32258C1.04516 3.87109 0 4.80013 0 6.11626V17.884C0 19.2001 1.04516 20.1292 2.32258 20.1292H7.74194V3.87109Z" fill="#D32027"/>
<path d="M21.6774 3.87109H16.2581V20.1292H21.6774C22.9548 20.1292 24 19.2001 24 17.884V6.11626C24 4.80013 22.9548 3.87109 21.6774 3.87109Z" fill="#D32027"/>
<path d="M21.6774 3.87109H16.2581V15.5227L21.6 20.1292C22.8774 20.1292 24 19.2001 24 17.884V6.11626C24 4.80013 22.9548 3.87109 21.6774 3.87109Z" fill="#BC1723"/>
<path d="M7.74193 3.87109H2.32258L7.74193 8.47755V3.87109Z" fill="#BC1723"/>
<path d="M16.2581 20.1292H21.6774C22.9548 20.1292 24 19.355 24 17.8066H16.2581V20.1292Z" fill="#AA0E21"/>
<path d="M0 17.8066C0 19.355 1.04516 20.1292 2.32258 20.1292H7.74194V17.8066H0Z" fill="#AA0E21"/>
<path d="M21.6774 3.87109H16.2581V7.97432L24 10.3743V6.11626C24 4.80013 22.9548 3.87109 21.6774 3.87109Z" fill="#AA0E21"/>
<path d="M7.74193 3.87109H2.32258L7.74193 5.45819V3.87109Z" fill="#AA0E21"/>
<path d="M17.0323 3.87109H6.96774V20.1292H17.0323V3.87109Z" fill="white"/>
<path d="M17.0323 15.5227V3.87109H6.96774V8.47755L17.0323 15.5227Z" fill="#E9F3F4"/>
<path d="M17.0323 17.8066H6.96774V20.1292H17.0323V17.8066Z" fill="#D3E9EA"/>
<path d="M17.0323 7.97432V3.87109H6.96774V5.45819L17.0323 7.97432Z" fill="#D3E9EA"/>
<path d="M15.6 12.0774C15.4839 11.9613 15.2129 11.9613 15.1742 11.7678C15.0968 11.2645 15.329 10.9936 15.4839 10.6452C14.7484 10.8 14.1677 11.1097 14.1677 10.2581C13.7419 10.7613 13.2774 11.3032 13.1226 11.1871C12.8516 11.0323 13.3935 9.71614 13.4323 9.01936C13.1613 9.13549 12.6968 9.40646 12.6968 9.40646C12.6968 9.40646 12.3871 8.51614 12 8.09033C11.6129 8.51614 11.3032 9.40646 11.3032 9.40646C11.3032 9.40646 10.8 9.13549 10.5677 9.01936C10.6065 9.71614 11.1484 11.0323 10.8774 11.1871C10.6839 11.2645 10.2581 10.7613 9.83226 10.2581C9.83226 11.071 9.25161 10.8 8.51613 10.6452C8.67097 10.9936 8.90323 11.2645 8.82581 11.7678C8.7871 11.9613 8.51613 11.9613 8.4 12.0774C9.25161 12.929 10.7226 13.5484 10.0258 14.2452L11.9226 14.0516C12 14.671 11.7677 15.4839 11.9613 15.871C12 15.871 12 15.871 12.0387 15.871C12.0774 15.871 12.0774 15.871 12.1161 15.871C12.3097 15.4839 12.0774 14.671 12.1548 14.0516L14.0516 14.2452C13.2774 13.5097 14.7484 12.929 15.6 12.0774Z" fill="#D32027"/>
<path d="M15.6 12.0774C15.4839 11.9613 15.2129 11.9613 15.1742 11.7678C15.0968 11.2645 15.329 10.9936 15.4839 10.6452C14.7484 10.8 14.1677 11.1097 14.1677 10.2581C13.7419 10.7613 13.2774 11.3032 13.1226 11.1871C12.8516 11.0323 13.3935 9.71614 13.4323 9.01936C13.1613 9.13549 12.6968 9.40646 12.6968 9.40646C12.6968 9.40646 12.3871 8.51614 12 8.09033C12 8.12904 12 8.12904 12 8.16775V15.871C12.0387 15.871 12.0387 15.871 12.0774 15.871C12.271 15.4839 12.0387 14.671 12.1161 14.0516L14.0129 14.2452C13.2774 13.5097 14.7484 12.929 15.6 12.0774Z" fill="#AA0E21"/>
</g>
<defs>
<clipPath id="clip0_321_650">
<rect width="24" height="24" fill="white"/>
</clipPath>
</defs>
</svg>
