<svg width="24" height="24" viewBox="0 0 24 24" fill="none" xmlns="http://www.w3.org/2000/svg">
<g clip-path="url(#clip0_324_1120)">
<path d="M24 17.884C24 19.2001 22.9548 20.1292 21.6774 20.1292H2.32258C1.04516 20.1292 0 19.2001 0 17.884V6.11626C0 4.80013 1.04516 3.87109 2.32258 3.87109H21.6774C22.9548 3.87109 24 4.80013 24 6.11626V17.884Z" fill="#DC3027"/>
<path d="M2.32257 3.87109H21.6774C22.9548 3.87109 24 4.80013 24 6.11626V17.884C24 19.2001 22.7613 20.1292 21.4839 20.1292" fill="#CE2420"/>
<path d="M2.32257 3.87109H21.6774C22.9548 3.87109 24 4.80013 24 6.11626V10.4517" fill="#B50808"/>
<path d="M24 17.8453C24 19.2776 22.9548 20.1292 21.6774 20.1292H2.32258C1.04516 20.1292 0 19.1228 0 17.8066" fill="#B50808"/>
<path d="M4.18064 6.30957L4.76128 8.12893H6.65806L5.14838 9.2128L5.72902 10.9934L4.18064 9.87086L2.67096 10.9547L3.2516 9.2128L1.70322 8.12893H3.59999L4.18064 6.30957Z" fill="#F8D12E"/>
<path d="M8.59355 5.22559L8.43871 5.84494L8.98064 6.23204H8.32258L8.12903 6.8901L7.89677 6.23204L7.23871 6.27075L7.78064 5.88365L7.54839 5.2643L8.09032 5.61268L8.59355 5.22559Z" fill="#F7B92F"/>
<path d="M8.59355 10.8774L8.43871 11.4968L8.98064 11.8839L8.32258 11.9226L8.12903 12.542L7.89677 11.9226H7.23871L7.78064 11.5355L7.54839 10.9162L8.09032 11.2645L8.59355 10.8774Z" fill="#F8D12E"/>
<path d="M10.2193 6.9292L10.0258 7.58726L10.5677 7.93565L9.90966 7.97436L9.71612 8.59372L9.52257 7.97436L8.8645 8.01307L9.36773 7.58726L9.13547 6.96791L9.67741 7.35501L10.2193 6.9292Z" fill="#F7B92F"/>
<path d="M10.2193 9.25146L10.0258 9.87082L10.5677 10.2579H9.90966L9.71612 10.916L9.52257 10.2966H8.8645L9.36773 9.90953L9.13547 9.29017L9.67741 9.63856L10.2193 9.25146Z" fill="#F8D12E"/>
</g>
<defs>
<clipPath id="clip0_324_1120">
<rect width="24" height="24" fill="white"/>
</clipPath>
</defs>
</svg>
