<svg width="24" height="24" viewBox="0 0 24 24" fill="none" xmlns="http://www.w3.org/2000/svg">
<g clip-path="url(#clip0_324_1086)">
<path d="M24 17.884C24 19.2001 22.9548 20.1292 21.6774 20.1292H2.32258C1.04516 20.1292 0 19.2001 0 17.884V6.11626C0 4.80013 1.04516 3.87109 2.32258 3.87109H21.6774C22.9548 3.87109 24 4.80013 24 6.11626V17.884Z" fill="#2B479D"/>
<path d="M2.32258 3.87109H21.6774C22.9548 3.87109 24 4.80013 24 6.11626V17.884C24 19.2001 22.7613 20.1292 21.4839 20.1292" fill="#183887"/>
<path d="M2.32258 3.87109H21.6774C22.9548 3.87109 24 4.80013 24 6.11626V10.4517" fill="#0B2F77"/>
<path d="M24 17.8453C24 19.2776 22.9548 20.1292 21.6774 20.1292H2.32258C1.04516 20.1292 0 19.1228 0 17.8066" fill="#0B2F77"/>
<path d="M11.9613 6.03857L12.1548 6.58051H12.7355L12.271 6.89019L12.4258 7.47083L11.9613 7.08374L11.4968 7.43212L11.6516 6.89019L11.1871 6.58051H11.7677L11.9613 6.03857Z" fill="#F8D12E"/>
<path d="M11.9613 16.4902L12.1548 17.0322H12.7355L12.271 17.4193L12.4258 17.9999L11.9613 17.6515L11.4968 17.9999L11.6516 17.4193L11.1871 17.0322H11.7677L11.9613 16.4902Z" fill="#F8D12E"/>
<path d="M14.8645 6.81299L15.0581 7.35492H15.6387L15.1742 7.78073L15.329 8.36138L14.8645 8.01299L14.4 8.36138L14.5548 7.74202L14.0903 7.35492H14.671L14.8645 6.81299Z" fill="#F8D12E"/>
<path d="M16.8387 8.74805L17.0323 9.28998H17.6129L17.1484 9.71579L17.3032 10.2964L16.8387 9.98676L16.3742 10.3351L16.5677 9.71579L16.0645 9.28998H16.6452L16.8387 8.74805Z" fill="#F8D12E"/>
<path d="M16.8774 13.7803L17.071 14.3222H17.6516L17.1871 14.7093L17.3806 15.2512L16.8774 14.9029L16.4129 15.29L16.6065 14.6706L16.1032 14.3222H16.7226L16.8774 13.7803Z" fill="#F8D12E"/>
<path d="M7.16129 8.74805L7.31612 9.28998H7.93548L7.43225 9.71579L7.6258 10.2964L7.16129 9.98676L6.65806 10.3351L6.85161 9.71579L6.38709 9.28998H6.96774L7.16129 8.74805Z" fill="#F8D12E"/>
<path d="M17.3032 11.0708L17.4968 11.6127H18.0774L17.6129 12.0385L17.7677 12.6579L17.3032 12.3095L16.8387 12.6966L16.9935 12.0385L16.529 11.6127H17.1097L17.3032 11.0708Z" fill="#F8D12E"/>
<path d="M6.69677 11.0708L6.89032 11.6127H7.47096L7.00645 12.0385L7.16129 12.6579L6.69677 12.3095L6.23225 12.6966L6.38709 12.0385L5.92258 11.6127H6.50322L6.69677 11.0708Z" fill="#F8D12E"/>
<path d="M7.08387 13.7803L7.27742 14.3222H7.85806L7.39355 14.7093L7.54839 15.2512L7.08387 14.9029L6.61935 15.29L6.77419 14.6706L6.30968 14.3222H6.89032L7.08387 13.7803Z" fill="#F8D12E"/>
<path d="M14.9419 15.7158L15.1355 16.2578H15.7161L15.2516 16.6836L15.4452 17.2642L14.9419 16.9545L14.4774 17.3029L14.671 16.6836L14.1677 16.2578H14.7484L14.9419 15.7158Z" fill="#F8D12E"/>
<path d="M9.13548 6.81299L9.32903 7.35492H9.90968L9.44516 7.78073L9.63871 8.36138L9.13548 8.01299L8.67097 8.36138L8.86452 7.74202L8.36129 7.35492H8.98064L9.13548 6.81299Z" fill="#F8D12E"/>
<path d="M8.94193 15.7158L9.13548 16.2578H9.71613L9.2129 16.6449L9.40645 17.2642L8.94193 16.9158L8.47742 17.2642L8.63226 16.6449L8.16774 16.2578H8.74839L8.94193 15.7158Z" fill="#F8D12E"/>
</g>
<defs>
<clipPath id="clip0_324_1086">
<rect width="24" height="24" fill="white"/>
</clipPath>
</defs>
</svg>
