<svg width="24" height="24" viewBox="0 0 24 24" fill="none" xmlns="http://www.w3.org/2000/svg">
<g clip-path="url(#clip0_321_1057)">
<path d="M0 14.7095V17.8837C0 19.1998 1.04516 20.1288 2.32258 20.1288H21.6774C22.9548 20.1288 24 19.1998 24 17.8837V14.7095H0Z" fill="#359846"/>
<path d="M21.6774 3.87109H2.32258C1.04516 3.87109 0 4.80013 0 6.11626V9.29045H24V6.11626C24 4.80013 22.9548 3.87109 21.6774 3.87109Z" fill="#EA8634"/>
<path d="M24 9.29053H0V14.7099H24V9.29053Z" fill="#FCFBF0"/>
<path d="M21.6 20.1288C22.8774 20.1288 24 19.1998 24 17.8837V14.7095H15.2516L21.6 20.1288Z" fill="#21872F"/>
<path d="M21.6774 3.87109H2.32257L8.74838 9.29045H24V6.11626C24 4.80013 22.9548 3.87109 21.6774 3.87109Z" fill="#E27423"/>
<path d="M15.2903 14.7099H24V9.29053H8.70969L15.2903 14.7099Z" fill="#F7F4E2"/>
<path d="M21.6774 3.87109H2.32257L20.2452 9.29045H24V6.11626C24 4.80013 22.9548 3.87109 21.6774 3.87109Z" fill="#D86619"/>
<path d="M24 10.3744V9.29053H20.0516L24 10.3744Z" fill="#F2E9C2"/>
<path d="M24 17.8453C24 19.2389 22.9548 20.1292 21.6774 20.1292H2.32258C1.04516 20.1292 0 19.1228 0 17.8066" fill="#167A20"/>
<path d="M12 9.56152C10.6452 9.56152 9.56128 10.6454 9.56128 12.0002C9.56128 13.3551 10.6452 14.4389 12 14.4389C13.3548 14.4389 14.4387 13.3551 14.4387 12.0002C14.4387 10.6454 13.3548 9.56152 12 9.56152ZM14.0129 12.2712C14.0129 12.3099 14.0516 12.3873 14.0903 12.3873C14.0516 12.5035 14.0516 12.6196 14.0129 12.7357C13.9742 12.697 13.8968 12.7357 13.8581 12.7744C13.8193 12.8131 13.8581 12.8906 13.8968 12.9293C13.8581 13.0454 13.7806 13.1228 13.7419 13.2389C13.7032 13.2002 13.6258 13.2002 13.5871 13.2777C13.5484 13.3164 13.5484 13.3938 13.5871 13.4325C13.5484 13.4712 13.5097 13.5099 13.471 13.5486L12.6193 12.5809L12.271 12.3099L12.3097 12.2712L12.6581 12.5422L13.7806 13.1228L12.7742 12.3486L12.3871 12.1938C12.3871 12.1551 12.3871 12.1551 12.4258 12.1164L12.8129 12.2712L14.0516 12.5422L12.8516 12.1551L12.4258 12.0777C12.4258 12.0389 12.4258 12.0389 12.4258 12.0002L12.8516 12.0389L14.129 11.9615L12.8516 11.8841L12.4258 11.9228C12.4258 11.8841 12.4258 11.8841 12.4258 11.8454L12.8516 11.768L14.0516 11.3809L12.8129 11.6518L12.4258 11.8067C12.4258 11.768 12.4258 11.768 12.3871 11.7293L12.7742 11.5744L13.8581 10.8777L12.7355 11.4583L12.3871 11.7293L12.3484 11.6906L12.6968 11.4196L13.5484 10.4518C13.5871 10.4906 13.6258 10.5293 13.6645 10.568C13.6258 10.6067 13.6258 10.6841 13.6645 10.7228C13.7032 10.7615 13.7806 10.7615 13.8193 10.7615C13.8968 10.8389 13.9355 10.9551 13.9742 11.0712C13.9355 11.1099 13.8968 11.1486 13.9355 11.226C13.9742 11.2647 14.0129 11.3035 14.0903 11.2647C14.129 11.3809 14.1677 11.497 14.1677 11.6131C14.129 11.6131 14.0903 11.6906 14.0903 11.7293C14.0903 11.768 14.1677 11.8454 14.2064 11.8067C14.2064 11.8454 14.2064 11.9228 14.2064 11.9615C14.2064 12.0002 14.2064 12.0777 14.2064 12.1164C14.0516 12.1551 14.0129 12.1938 14.0129 12.2712ZM10.6452 10.3744C10.6839 10.4131 10.7613 10.4131 10.8 10.3744C10.8387 10.3357 10.8387 10.2583 10.8387 10.2196C10.9161 10.1422 11.0322 10.1035 11.1484 10.0647C11.1871 10.1035 11.2258 10.1422 11.3032 10.1035C11.3419 10.0647 11.3806 10.026 11.3419 9.94862C11.4581 9.90991 11.5742 9.8712 11.6903 9.8712C11.6903 9.90991 11.7677 9.94862 11.8064 9.94862C11.8451 9.94862 11.9226 9.8712 11.8839 9.83249C11.9226 9.83249 12 9.83249 12.0387 9.83249C12.0774 9.83249 12.1548 9.83249 12.1935 9.83249C12.1935 9.8712 12.2322 9.94862 12.271 9.94862C12.3097 9.94862 12.3871 9.90991 12.3871 9.8712C12.5032 9.90991 12.6193 9.90991 12.7355 9.94862C12.6968 9.98733 12.7355 10.0647 12.7742 10.1035C12.8129 10.1422 12.8903 10.1035 12.929 10.0647C13.0452 10.1035 13.1226 10.1809 13.2387 10.2196C13.2 10.2583 13.2 10.3357 13.2774 10.3744C13.3161 10.4131 13.3935 10.4131 13.4322 10.3744C13.471 10.4131 13.5097 10.4518 13.5484 10.4906L12.5806 11.3422L12.3097 11.6906L12.271 11.6518L12.5419 11.3035L13.1226 10.1809L12.3484 11.226L12.1935 11.6131C12.1548 11.6131 12.1548 11.6131 12.1161 11.5744L12.271 11.1873L12.5419 9.94862L12.1548 11.1486L12.0774 11.5744C12.0387 11.5744 12.0387 11.5744 12 11.5744L12.0387 11.1486L12 9.8712L11.9226 11.1486L11.9613 11.5744C11.9226 11.5744 11.9226 11.5744 11.8839 11.5744L11.8064 11.1486L11.4193 9.94862L11.6903 11.1873L11.8452 11.5744C11.8064 11.5744 11.8064 11.5744 11.7677 11.6131L11.6129 11.226L10.9161 10.1422L11.4968 11.2647L11.7677 11.6131L11.729 11.6518L11.4581 11.3035L10.4903 10.4518C10.529 10.4518 10.5677 10.4131 10.6452 10.3744ZM10.4903 13.5099C10.4516 13.4712 10.4129 13.4325 10.3742 13.3938C10.4129 13.3551 10.4129 13.2777 10.3742 13.2389C10.3355 13.2002 10.2581 13.2002 10.2193 13.2002C10.1419 13.1228 10.1032 13.0067 10.0645 12.8906C10.1032 12.8518 10.1419 12.8131 10.1032 12.7357C10.0645 12.697 10.0258 12.6583 9.94838 12.697C9.90967 12.5809 9.87096 12.4647 9.87096 12.3486C9.90967 12.3486 9.94838 12.2712 9.94838 12.2325C9.94838 12.1938 9.87096 12.1164 9.83225 12.1551C9.83225 12.1164 9.83225 12.0389 9.83225 12.0002C9.83225 11.9615 9.83225 11.8841 9.83225 11.8454C9.87096 11.8454 9.94838 11.8067 9.94838 11.768C9.94838 11.7293 9.90967 11.6518 9.87096 11.6518C9.90967 11.5357 9.90967 11.4196 9.94838 11.3035C9.98709 11.3422 10.0645 11.3035 10.1032 11.2647C10.1419 11.226 10.1032 11.1486 10.0645 11.1099C10.1032 10.9938 10.1806 10.9164 10.2193 10.8002C10.2581 10.8389 10.3355 10.8389 10.3742 10.7615C10.4129 10.6841 10.4129 10.6454 10.3742 10.6067C10.4129 10.568 10.4516 10.5293 10.4903 10.4906L11.3419 11.4583L11.6903 11.7293L11.6516 11.768L11.3032 11.497L10.1806 10.9164L11.2645 11.6131L11.6516 11.768C11.6516 11.8067 11.6516 11.8067 11.6129 11.8454L11.2258 11.6906L9.98709 11.4196L11.1871 11.8067L11.6129 11.8841C11.6129 11.9228 11.6129 11.9228 11.6129 11.9615L11.1871 11.9228L9.87096 12.0002L11.1484 12.0777L11.5742 12.0389C11.5742 12.0777 11.5742 12.0777 11.5742 12.1164L11.1484 12.1938L9.94838 12.5809L11.1871 12.3099L11.5742 12.1551C11.5742 12.1938 11.5742 12.1938 11.6129 12.2325L11.2258 12.3873L10.1419 13.0841L11.2645 12.5035L11.6129 12.2325L11.6516 12.2712L11.3032 12.5422L10.4903 13.5099ZM11.8452 14.1293C11.8452 14.0906 11.8064 14.0131 11.7677 14.0131C11.729 14.0131 11.6516 14.0518 11.6516 14.0906C11.5355 14.0518 11.4193 14.0518 11.3032 14.0131C11.3419 13.9744 11.3032 13.897 11.2645 13.8583C11.2258 13.8196 11.1484 13.8583 11.1097 13.897C10.9935 13.8583 10.9161 13.7809 10.8 13.7422C10.8387 13.7035 10.8387 13.626 10.7613 13.5873C10.7226 13.5486 10.6451 13.5486 10.6064 13.5873C10.5677 13.5486 10.529 13.5099 10.4903 13.4712L11.4581 12.6196L11.729 12.2712L11.7677 12.3099L11.4968 12.6583L10.9161 13.7809L11.6129 12.697L11.7677 12.3099C11.8064 12.3099 11.8064 12.3099 11.8452 12.3486L11.6903 12.7357L11.4193 13.9744L11.8064 12.7744L11.8839 12.3486C11.9226 12.3486 11.9226 12.3486 11.9613 12.3486L11.9226 12.7744L12 14.0518L12.0774 12.7744L12.0387 12.3486C12.0774 12.3486 12.0774 12.3486 12.1161 12.3486L12.1935 12.7744L12.5806 13.9744L12.3097 12.7357L12.1548 12.3486C12.1935 12.3486 12.1935 12.3486 12.2322 12.3099L12.3871 12.697L13.0839 13.7809L12.5032 12.6583L12.2322 12.3099L12.271 12.2712L12.5419 12.6196L13.5097 13.4712C13.471 13.5099 13.4322 13.5486 13.3935 13.5873C13.3548 13.5486 13.2774 13.5486 13.2387 13.5873C13.2 13.626 13.2 13.7035 13.2 13.7422C13.1226 13.8196 13.0064 13.8583 12.8903 13.897C12.8516 13.8583 12.8129 13.8196 12.7355 13.8583C12.6581 13.897 12.6581 13.9357 12.6968 14.0131C12.5806 14.0518 12.4645 14.0906 12.3484 14.0906C12.3484 14.0518 12.271 14.0131 12.2322 14.0131C12.1935 14.0131 12.1161 14.0906 12.1548 14.1293C12.1161 14.1293 12.0387 14.1293 12 14.1293C11.9613 14.1293 11.8839 14.1293 11.8452 14.1293Z" fill="#7D7DBC"/>
<path d="M12.5419 12.4648L12.6581 12.581V12.5423L12.5419 12.4648Z" fill="#6060B2"/>
<path d="M12 9.56152C11.2645 9.56152 10.6065 9.90991 10.1419 10.4131L10.3742 10.6067C10.4129 10.568 10.4516 10.5293 10.4903 10.4906C10.529 10.4518 10.5677 10.4131 10.6065 10.3744C10.6452 10.4131 10.7226 10.4131 10.7613 10.3744C10.8 10.3357 10.8 10.2583 10.8 10.2196C10.8387 10.1809 10.9161 10.1809 10.9548 10.1422L11.5355 11.2647L11.8065 11.6131L11.7677 11.6518L11.4968 11.3035L10.529 10.4518L11.3419 11.3809L11.4581 11.4583L11.6903 11.6518L12.3484 12.1938L12.3871 12.1551L12.7355 12.426L13.8581 13.0067C13.8194 13.0454 13.8194 13.1228 13.7806 13.1615C13.7419 13.1228 13.6645 13.1228 13.6258 13.2002C13.5871 13.2389 13.5871 13.3164 13.6258 13.3551L13.8581 13.5486C14.2065 13.1228 14.4387 12.5809 14.4387 11.9615C14.4387 10.6454 13.3548 9.56152 12 9.56152ZM11.8065 11.6131L11.6516 11.226L10.9548 10.1809C10.9935 10.1422 11.0323 10.1035 11.1097 10.1035C11.1484 10.1422 11.1871 10.1809 11.2645 10.1422C11.3032 10.1035 11.3419 10.0647 11.3032 9.98733C11.3419 9.98733 11.4194 9.94862 11.4581 9.94862L11.729 11.1873L11.8839 11.5744C11.8452 11.6131 11.8452 11.6131 11.8065 11.6131ZM12.0387 11.5744L12.0774 11.1486L12 9.8712L11.9226 11.1486L11.9613 11.5744C11.9226 11.5744 11.9226 11.5744 11.8839 11.5744L11.8065 11.1486L11.4194 9.94862C11.4581 9.94862 11.5355 9.90991 11.5742 9.90991C11.5742 9.94862 11.6516 9.98733 11.6903 9.98733C11.729 9.98733 11.8065 9.90991 11.7677 9.8712C11.8065 9.8712 11.8839 9.8712 11.9226 9.8712C11.9613 9.8712 12.0387 9.8712 12.0774 9.8712C12.0774 9.90991 12.1161 9.98733 12.1548 9.98733C12.1935 9.98733 12.271 9.94862 12.271 9.90991C12.3097 9.90991 12.3871 9.94862 12.4258 9.94862L12.0387 11.1486L11.9613 11.5744C12.0774 11.5744 12.0387 11.5744 12.0387 11.5744ZM12.1161 11.6131L12.271 11.226L12.5419 9.98733C12.5806 9.98733 12.6581 10.026 12.6968 10.026C12.6581 10.0647 12.6968 10.1422 12.7355 10.1809C12.7742 10.2196 12.8516 10.1809 12.8903 10.1422C12.929 10.1809 13.0065 10.1809 13.0452 10.2196L12.3484 11.226L12.1935 11.6131C12.1548 11.6131 12.1548 11.6131 12.1161 11.6131ZM13.8581 12.7744C13.8194 12.8131 13.8581 12.8906 13.8968 12.9293C13.8581 12.968 13.8581 13.0454 13.8194 13.0841L12.7742 12.3486L12.3871 12.1938C12.3871 12.1551 12.3871 12.1551 12.4258 12.1164L12.8129 12.2712L14.0516 12.5422C14.0516 12.5809 14.0129 12.6583 14.0129 12.697C13.9355 12.697 13.8968 12.7357 13.8581 12.7744ZM14.129 11.8454C14.129 11.8841 14.129 11.9615 14.129 12.0002C14.129 12.0389 14.129 12.1164 14.129 12.1551C14.0903 12.1551 14.0129 12.1938 14.0129 12.2325C14.0129 12.2712 14.0516 12.3486 14.0903 12.3486C14.0903 12.3873 14.0516 12.4647 14.0516 12.5035L12.8516 12.1164L12.4258 12.0389C12.4258 12.0002 12.4258 12.0002 12.4258 11.9615L12.8516 12.0002L14.129 11.9228L12.8516 11.8454L12.4258 11.8841C12.4258 11.8454 12.4258 11.8454 12.4258 11.8067L12.8516 11.7293L14.0516 11.3422C14.0516 11.3809 14.0903 11.4583 14.0903 11.497C14.0516 11.497 14.0129 11.5744 14.0129 11.6131C14.0129 11.8067 14.0516 11.8454 14.129 11.8454ZM13.8581 11.226C13.8968 11.2647 13.9355 11.3035 14.0129 11.2647C14.0129 11.3035 14.0516 11.3809 14.0516 11.4196L12.8129 11.6906L12.4258 11.8454C12.4258 11.8067 12.4258 11.8067 12.3871 11.768L12.7742 11.6131L13.8194 10.9164C13.8581 10.9551 13.8968 10.9938 13.8968 11.0712C13.8581 11.1099 13.8194 11.1873 13.8581 11.226ZM13.8194 10.9551L12.6968 11.5357L12.3484 11.8067L12.3097 11.768L12.6581 11.497L13.5097 10.5293L12.5419 11.3809L12.271 11.7293L12.2323 11.6906L12.5032 11.3422L13.0839 10.2196C13.1226 10.2583 13.2 10.2583 13.2387 10.297C13.2 10.3357 13.2 10.4131 13.2774 10.4518C13.3161 10.4906 13.3936 10.4906 13.4323 10.4518C13.471 10.4906 13.5097 10.5293 13.5484 10.568C13.5871 10.6067 13.6258 10.6454 13.6645 10.6841C13.6258 10.7228 13.6258 10.8002 13.6645 10.8389C13.7032 10.8777 13.7806 10.8777 13.8194 10.8777C13.7806 10.8389 13.8194 10.8777 13.8194 10.9551Z" fill="#6060B2"/>
</g>
<defs>
<clipPath id="clip0_321_1057">
<rect width="24" height="24" fill="white"/>
</clipPath>
</defs>
</svg>
