<svg width="24" height="24" viewBox="0 0 24 24" fill="none" xmlns="http://www.w3.org/2000/svg">
<g clip-path="url(#clip0_321_685)">
<path d="M24 17.8837C24 19.1998 22.9548 20.245 21.6774 20.245H2.32258C1.04516 20.245 0 19.1998 0 17.8837V6.11594C0 4.79981 1.04516 3.99658 2.32258 3.99658H21.6774C22.9548 3.99658 24 4.79981 24 6.11594V17.8837Z" fill="white"/>
<path d="M21.6774 3.75488H2.32257L21.6774 20.2452C22.9548 20.2452 24 19.2 24 17.8839V6.11617C24 4.80004 22.9548 3.75488 21.6774 3.75488Z" fill="#CCE4E5"/>
<path d="M21.6774 3.75488H2.32257L24 10.4129V6.11617C24 4.80004 22.9548 3.75488 21.6774 3.75488Z" fill="#AED3D3"/>
<path d="M0.237122 18.9287C0.600025 19.6738 1.33551 20.1964 2.1968 20.24C2.24035 20.24 2.27906 20.2448 2.32261 20.2448H21.692C21.692 20.2448 21.8613 20.2303 21.9145 20.2109C21.9968 20.1819 22.0065 20.1142 21.9436 20.0609L21.9242 20.0416L20.6129 18.9238H0.237122V18.9287Z" fill="#B22234"/>
<path d="M5.85 6.34814H0V7.60621H7.32581L5.85 6.34814Z" fill="#B22234"/>
<path d="M8.80161 8.86426H0V10.1223H10.2823L8.80161 8.86426Z" fill="#B22234"/>
<path d="M11.7484 11.3804H0V12.6578H13.2194L11.7484 11.3804Z" fill="#B22234"/>
<path d="M14.6903 13.8965H0V15.1739H16.2L14.6903 13.8965Z" fill="#B22234"/>
<path d="M18.0677 16.7561L17.6613 16.4126H0V17.69H19.1419L18.0677 16.7561Z" fill="#B22234"/>
<path d="M11.5355 6.34814H5.36615L6.84196 7.60621H15.6387L11.5355 6.34814Z" fill="#8C1126"/>
<path d="M9.79839 10.1223H23.6371L19.5387 8.86426H8.31775L9.79839 10.1223Z" fill="#8C1126"/>
<path d="M12.7742 12.6578H24V11.3804H11.2742L12.7742 12.6578Z" fill="#8C1126"/>
<path d="M15.7258 15.1739H24V13.8965H14.2258L15.7258 15.1739Z" fill="#8C1126"/>
<path d="M17.5839 16.7561L18.6775 17.69H24V16.4126H17.1871L17.5839 16.7561Z" fill="#8C1126"/>
<path d="M10.7662 6.34863L13.8388 7.29218L14.8646 7.6067H24V6.34863H10.7662Z" fill="#5B0218"/>
<path d="M18.9678 8.86475L23.071 10.1228H24V8.86475H18.9678Z" fill="#5B0218"/>
<path d="M23.5355 4.69843C23.4678 4.6065 23.3952 4.52424 23.3178 4.44198C22.9258 4.04521 22.3936 3.78875 21.8033 3.75972C21.7645 3.75972 21.721 3.75488 21.6823 3.75488H2.32261C1.68873 3.75488 1.08873 4.04037 0.658089 4.46617C0.488735 4.64521 0.343573 4.84843 0.237122 5.07101H3.86615H6.60486H23.7581C23.7 4.94037 23.6226 4.81456 23.5355 4.69843Z" fill="#5B0218"/>
<path d="M23.7629 18.9292H20.1339L21.6774 20.2453C22.5871 20.2453 23.3806 19.7131 23.7629 18.9292Z" fill="#8C1126"/>
<path d="M0 6.11617V12.6194H10.4129V3.75488H2.16774C0.967742 3.8323 0 4.83875 0 6.11617Z" fill="#3C3B6E"/>
<path d="M10.4129 10.6452V3.75488H2.32257L10.4129 10.6452Z" fill="#1E1E44"/>
<path d="M10.4129 6.2323V3.75488H2.32257L10.4129 6.2323Z" fill="black"/>
<path d="M2.94196 4.64532L3.09679 4.14209L3.29034 4.64532H2.94196Z" fill="white"/>
<path d="M5.03223 4.64532L5.18707 4.14209L5.3419 4.64532H5.03223Z" fill="white"/>
<path d="M7.08386 4.64532L7.27741 4.14209L7.43225 4.64532H7.08386Z" fill="white"/>
<path d="M9.17419 4.64532L9.32903 4.14209L9.52258 4.64532H9.17419Z" fill="white"/>
<path d="M1.89679 5.53545L2.09034 5.03223L2.24518 5.53545H1.89679Z" fill="white"/>
<path d="M3.98712 5.53545L4.14196 5.03223L4.33551 5.53545H3.98712Z" fill="white"/>
<path d="M6.07739 5.53545L6.23223 5.03223L6.38707 5.53545H6.07739Z" fill="white"/>
<path d="M8.12903 5.53545L8.28387 5.03223L8.47742 5.53545H8.12903Z" fill="white"/>
<path d="M0.89032 6.42608L1.04516 5.92285L1.2 6.42608H0.89032Z" fill="white"/>
<path d="M2.94196 6.42608L3.09679 5.92285L3.29034 6.42608H2.94196Z" fill="white"/>
<path d="M5.03223 6.42608L5.18707 5.92285L5.3419 6.42608H5.03223Z" fill="white"/>
<path d="M7.08386 6.42608L7.27741 5.92285L7.43225 6.42608H7.08386Z" fill="white"/>
<path d="M9.17419 6.42608L9.32903 5.92285L9.52258 6.42608H9.17419Z" fill="white"/>
<path d="M1.93549 7.31621L2.09032 6.81299L2.28387 7.31621H1.93549Z" fill="white"/>
<path d="M4.02582 7.31621L4.18066 6.81299L4.3355 7.31621H4.02582Z" fill="white"/>
<path d="M6.07739 7.31621L6.27094 6.81299L6.42578 7.31621H6.07739Z" fill="white"/>
<path d="M8.16772 7.31621L8.32256 6.81299L8.4774 7.31621H8.16772Z" fill="white"/>
<path d="M0.89032 8.16778L1.08387 7.66455L1.23871 8.16778H0.89032Z" fill="white"/>
<path d="M2.98065 8.16778L3.13549 7.66455L3.32904 8.16778H2.98065Z" fill="white"/>
<path d="M5.07098 8.16778L5.22582 7.66455L5.38066 8.16778H5.07098Z" fill="white"/>
<path d="M7.12256 8.16778L7.31611 7.66455L7.47095 8.16778H7.12256Z" fill="white"/>
<path d="M9.21289 8.16778L9.36773 7.66455L9.52257 8.16778H9.21289Z" fill="white"/>
<path d="M1.93549 9.0584L2.09032 8.55518L2.28387 9.0584H1.93549Z" fill="white"/>
<path d="M4.02582 9.0584L4.18066 8.55518L4.3355 9.0584H4.02582Z" fill="white"/>
<path d="M6.07739 9.0584L6.27094 8.55518L6.42578 9.0584H6.07739Z" fill="white"/>
<path d="M8.16772 9.0584L8.32256 8.55518L8.51611 9.0584H8.16772Z" fill="white"/>
<path d="M0.929016 9.94854L1.08385 9.44531L1.23869 9.94854H0.929016Z" fill="white"/>
<path d="M3.01935 9.94854L3.17419 9.44531L3.32903 9.94854H3.01935Z" fill="white"/>
<path d="M5.07098 9.94854L5.22582 9.44531L5.41937 9.94854H5.07098Z" fill="white"/>
<path d="M7.16132 9.94854L7.31615 9.44531L7.47099 9.94854H7.16132Z" fill="white"/>
<path d="M9.21289 9.94854L9.40644 9.44531L9.56128 9.94854H9.21289Z" fill="white"/>
<path d="M1.93549 10.8388L2.09032 10.2969L2.28387 10.8388H1.93549Z" fill="white"/>
<path d="M4.02582 10.8388L4.18066 10.2969L4.3355 10.8388H4.02582Z" fill="white"/>
<path d="M6.07739 10.8388L6.27094 10.2969L6.42578 10.8388H6.07739Z" fill="white"/>
<path d="M8.16772 10.8388L8.32256 10.2969L8.4774 10.8388H8.16772Z" fill="white"/>
<path d="M0.89032 11.6902L1.08387 11.187L1.23871 11.6902H0.89032Z" fill="white"/>
<path d="M2.98065 11.6902L3.13549 11.187L3.29033 11.6902H2.98065Z" fill="white"/>
<path d="M5.03223 11.6902L5.22577 11.187L5.38061 11.6902H5.03223Z" fill="white"/>
<path d="M7.12256 11.6902L7.2774 11.187L7.47095 11.6902H7.12256Z" fill="white"/>
<path d="M9.21289 11.6902L9.36773 11.187L9.52257 11.6902H9.21289Z" fill="white"/>
</g>
<defs>
<clipPath id="clip0_321_685">
<rect width="24" height="24" fill="white"/>
</clipPath>
</defs>
</svg>
